<svg width="1626" height="1844" xmlns="http://www.w3.org/2000/svg" xmlns:xlink="http://www.w3.org/1999/xlink" xml:space="preserve" overflow="hidden"><defs><clipPath id="clip0"><rect x="1421" y="307" width="1626" height="1844"/></clipPath><clipPath id="clip1"><path d="M2668.45 951.474 3022.62 902.776 3046.97 1079.86 2692.8 1128.56Z" fill-rule="evenodd" clip-rule="evenodd"/></clipPath><clipPath id="clip2"><path d="M2668.45 951.474 3022.62 902.776 3046.97 1079.86 2692.8 1128.56Z" fill-rule="evenodd" clip-rule="evenodd"/></clipPath><clipPath id="clip3"><path d="M2668.45 951.474 3022.62 902.776 3046.97 1079.86 2692.8 1128.56Z" fill-rule="evenodd" clip-rule="evenodd"/></clipPath></defs><g clip-path="url(#clip0)" transform="translate(-1421 -307)"><path d="M2138 307C2208.14 307 2265 364.063 2265 434.454 2265 487.246 2233.02 532.543 2187.43 551.891L2171.03 557 2162.5 541.7C2135.5 502.794 2097.26 471.884 2052.31 453.381L2011.67 441.101 2011 434.454C2011 364.063 2067.86 307 2138 307Z" fill-rule="evenodd"/><path d="M1883.23 336C1919.56 336 1951.58 354.324 1970.49 382.196L1979 397.801 1961.09 400.526C1915.43 409.843 1872.99 428.006 1835.68 453.142L1790.87 490 1786.27 481.563C1780.94 469.027 1778 455.245 1778 440.778 1778 382.911 1825.11 336 1883.23 336Z" fill-rule="evenodd"/><path d="M1421 1261.5C1421 1197.71 1471.14 1146 1533 1146 1594.86 1146 1645 1197.71 1645 1261.5 1645 1325.29 1594.86 1377 1533 1377 1471.14 1377 1421 1325.29 1421 1261.5Z" fill-rule="evenodd"/><path d="M1577.88 1386.45 1668.6 2031.99C1669.93 2041.47 1663.92 2050.15 1655.17 2051.38L1654.18 2051.52C1645.43 2052.75 1637.26 2046.06 1635.92 2036.59L1545.52 1393.36ZM1516.12 1061.94C1524.86 1060.71 1533.04 1067.39 1534.37 1076.87L1541.9 1130.5 1531.44 1128.03 1508.91 1132.85 1501.69 1081.47C1500.36 1071.99 1506.37 1063.31 1515.12 1062.08Z" fill="#FF0000" fill-rule="evenodd"/><path d="M1468.78 1087.63C1467.02 1075.16 1475.71 1063.63 1488.18 1061.88L1545.82 1053.78C1558.3 1052.02 1569.83 1060.71 1571.58 1073.18L1571.58 1073.18C1573.33 1085.65 1564.64 1097.18 1552.17 1098.94L1494.53 1107.04C1482.06 1108.79 1470.53 1100.1 1468.78 1087.63Z" fill-rule="evenodd"/><path d="M1666.84 1919.97C1679.32 1918.21 1690.85 1926.91 1692.6 1939.38L1692.6 1939.38C1694.35 1951.86 1685.66 1963.39 1673.19 1965.14L1660.73 1966.9 1670 2032.84C1671.18 2041.28 1665.31 2049.08 1656.87 2050.27L1655.91 2050.4C1647.47 2051.59 1639.67 2045.71 1638.48 2037.27L1629.22 1971.32 1615.55 1973.24C1603.08 1975 1591.55 1966.3 1589.8 1953.83L1589.8 1953.83C1588.04 1941.35 1596.73 1929.82 1609.2 1928.07Z" fill-rule="evenodd"/><path d="M2727.21 677.966C2692.83 677.966 2664.97 705.833 2664.97 740.21 2664.97 774.586 2692.83 802.453 2727.21 802.453 2761.59 802.453 2789.45 774.586 2789.45 740.21 2789.45 705.833 2761.59 677.966 2727.21 677.966ZM2724 603C2798.01 603 2858 662.994 2858 737 2858 811.006 2798.01 871 2724 871 2649.99 871 2590 811.006 2590 737 2590 662.994 2649.99 603 2724 603Z" fill="#FF0000" fill-rule="evenodd"/><path d="M2342.64 1558.84 2376.24 1568.32C2437.29 1589.2 2490.97 1625.98 2532.33 1673.74L2549 1696.61 2519.33 1732.58C2496.81 1755.1 2470 1773.32 2440.23 1785.92L2430.9 1788.81ZM2259.44 1549 2268.32 1549.49 2364.22 1799.37 2339.42 1805.08 2307.94 1812.34C2196.8 1846.92 2106.74 1929.34 2061.83 2035.52L2055.44 2053 2052 2038.11C2030.56 1969.14 1979.43 1913.25 1913.57 1885.39L1900 1881.18 1900.41 1873.05C1913.12 1747.92 1989.73 1641.68 2097.09 1587.5L2097.58 1587.28 2127.11 1574.04C2168.08 1557.88 2212.72 1549 2259.44 1549Z" fill-rule="evenodd"/><path d="M2408 1796 2393.37 1800.25C2377.09 1803.36 2360.22 1805 2342.95 1805L2339 1804.63 2364.86 1799.05 2408 1796Z" fill-rule="evenodd"/><path d="M2294.54 1483.68 2520.51 2072.36C2523.68 2080.61 2519.56 2089.86 2511.31 2093.03L2510.37 2093.39C2502.12 2096.56 2492.87 2092.44 2489.7 2084.19L2264.24 1496.84 2275.53 1494.5C2282 1491.67 2288.16 1488.22 2293.92 1484.21ZM2177.47 1223.34C2185.71 1220.17 2194.97 1224.29 2198.13 1232.54L2217.63 1283.33 2191.23 1288.82 2185.6 1291.97 2167.32 1244.37C2164.16 1236.12 2168.28 1226.87 2176.53 1223.7Z" fill="#FF0000" fill-rule="evenodd"/><path d="M2140 1392C2140 1338.98 2181.86 1296 2233.5 1296 2285.14 1296 2327 1338.98 2327 1392 2327 1445.02 2285.14 1488 2233.5 1488 2181.86 1488 2140 1445.02 2140 1392Z" fill-rule="evenodd"/><path d="M2467.12 770C2477.34 770 2487.44 770.519 2497.4 771.531L2505.01 772.695 2530.08 813.93 2543 840.741 2515.26 832.116C2499.71 828.93 2483.61 827.256 2467.12 827.256 2335.2 827.256 2228.25 934.358 2228.25 1066.47 2228.25 1118.08 2244.57 1165.87 2272.32 1204.95L2281.78 1216.71 2257.04 1235.21 2237.47 1253 2225.63 1238.28C2191.23 1189.83 2171 1130.57 2171 1066.59 2171 902.787 2303.58 770 2467.12 770Z" fill="#FF0000" fill-rule="evenodd"/><path d="M1814.76 1889C1934.74 1889 2032 1986.39 2032 2106.54L2031.42 2112.34 2003.33 2121.07C1987.55 2124.3 1971.21 2126 1954.48 2126 1866.62 2126 1789.69 2079.2 1747.17 2009.14L1743.08 2000.89 1733.8 1982.18 1732.53 1978.18C1731.53 1973.39 1731 1968.44 1731 1963.36 1731 1932.92 1749.98 1906.79 1777.02 1895.63L1791.02 1891.4 1802.56 1890.23Z" fill-rule="evenodd"/><path d="M1802 1890 1791 1891 1791.14 1890.96 1802 1890Z" fill-rule="evenodd"/><path d="M1733 1982 1743 2001 1736.36 1991.95 1733 1982Z" fill-rule="evenodd"/><path d="M1906 1065 1899.02 1134.28 1900.54 1149.34 1891.91 1165.25C1868.85 1219.8 1856.1 1279.77 1856.1 1342.73 1856.1 1358.47 1856.9 1374.02 1858.45 1389.34L1859.58 1396.73 1842.72 1402.9C1815.37 1411.41 1786.28 1416 1756.13 1416 1715.93 1416 1677.63 1407.85 1642.79 1393.1L1606 1373.12 1625.09 1356.89C1648.68 1332.57 1663.28 1298.98 1663.28 1261.88 1663.28 1234.05 1655.07 1208.19 1641.01 1186.75L1640.78 1186.46 1645.27 1187.15C1654.74 1188.11 1664.34 1188.6 1674.07 1188.6 1765.21 1188.6 1846.25 1145.28 1897.73 1078.09Z" fill-rule="evenodd"/><path d="M2616.59 567C2638.86 567 2660.09 571.528 2679.39 579.717L2694 587.669 2693.18 587.752C2624.08 601.933 2572.1 663.25 2572.1 736.743 2572.1 791.863 2601.34 840.134 2645.11 866.807L2651.33 870 2649.9 869.927C2635.17 868.428 2620.66 866.196 2606.4 863.269L2580.26 856.529 2571.36 851.675 2548.35 803.813C2531.61 772.93 2513.43 742.948 2493.89 713.959L2465 675.246 2467.91 665.838C2492.41 607.755 2549.75 567 2616.59 567Z" fill="#FF0000" fill-rule="evenodd"/><path d="M2867.13 854 2892.88 899.707 2673.55 930.496C2655.52 933.027 2642.96 949.68 2645.49 967.691L2667.29 1122.61C2669.82 1140.62 2686.49 1153.17 2704.53 1150.64L2959.13 1114.9 2962.91 1141.27C2964.95 1162.74 2966 1184.5 2966 1206.5 2966 1222.64 2965.44 1238.64 2964.33 1254.5L2963.4 1263.38 2959.4 1301.6 2954.87 1327.38 2942.1 1368.48C2900.91 1465.75 2804.48 1534 2692.1 1534 2682.73 1534 2673.48 1533.53 2664.36 1532.6L2658.92 1531.77 2666.62 1488.74C2674.9 1434.68 2679.19 1379.3 2679.19 1322.92 2679.19 1247.76 2671.56 1174.37 2657.03 1103.49L2630.29 999.702 2630.15 999.137C2616.87 956.519 2601.03 915.023 2582.83 874.828L2582 873.142 2605.76 880.509C2634.37 886.357 2663.99 889.428 2694.34 889.428 2755.02 889.428 2812.83 877.144 2865.41 854.93Z" fill="#FF0000" fill-rule="evenodd"/><path d="M2963 1263 2961.7 1290.32C2960.84 1299.43 2959.54 1308.41 2957.85 1317.23L2955 1327 2959.24 1301.21 2963 1263Z" fill="#FF0000" fill-rule="evenodd"/><path d="M1609.13 875 1610.95 876.511 1615.55 881.153 1617.3 898.447C1624.91 935.556 1650.58 966.098 1684.75 980.521L1705.6 986.979 1711 995 1705.51 994.448C1650.43 983.2 1609 934.563 1609 876.269Z" fill-rule="evenodd"/><path d="M0 24.0001C-6.11101e-15 10.7452 10.7451 0 23.9999 0 37.2547-6.11106e-15 47.9998 10.7452 47.9998 24.0001 47.9998 37.2549 37.2547 48.0001 23.9999 48.0001 10.7451 48.0001-9.16652e-15 37.2549 0 24.0001Z" fill-rule="evenodd" transform="matrix(1 0 0 -1 1798 762)"/><path d="M73.1562 188.978C51.828 188.978 34.5383 171.712 34.5383 150.413 34.5383 129.114 51.828 111.848 73.1562 111.848 94.4844 111.848 111.774 129.114 111.774 150.413 111.774 171.712 94.4844 188.978 73.1562 188.978ZM80.6843 254C86.3261 254 91.8339 253.429 97.1535 252.342L108.739 248.751 110.049 248.883 114.044 247.644 118.939 244.349 119.997 244.02C175.548 220.557 216.598 169.561 225.992 108.162L226.512 101.303 225.854 99.1866 227.492 88.3665 228 81.6632 226.501 66.8092C218.688 28.6814 184.905 0 144.415 0 132.847 0 121.826 2.34144 111.801 6.57532L107.321 9.59204 101.04 10.2243 85.1634 18.3411C34.106 49.3216 0 105.388 0 169.409L2.42285 193.41 10.7966 214.71C25.1292 238.265 51.0671 254 80.6843 254Z" fill-rule="evenodd" transform="matrix(1 0 0 -1 1760 884)"/><path d="M2458.25 852 2499.11 885.755C2546.79 933.496 2580.82 994.895 2594.86 1063.59L2595.4 1067.08 2595.4 1067.08 2600.19 1098.51C2601.39 1110.34 2602 1122.34 2602 1134.48 2602 1145.1 2601.53 1155.62 2600.61 1166L2598.32 1183.18 2597.95 1188.05 2597.29 1190.94 2596.51 1196.74 2592.68 1210.95 2586.21 1239.08 2582.87 1248.2 2582.59 1248.35 2580.68 1255.42C2539.31 1368.56 2441.56 1454.48 2321.5 1479.08L2295.86 1483 2310.29 1470.72C2329.88 1450.52 2341.99 1422.61 2341.99 1391.79 2341.99 1330.13 2293.53 1280.15 2233.75 1280.15 2226.28 1280.15 2218.98 1280.93 2211.94 1282.42L2203 1285.28 2234.33 1255.03 2301.26 1201.59 2289.39 1187.17C2266.19 1152.76 2252.65 1111.28 2252.65 1066.63 2252.65 962.445 2326.38 875.522 2424.41 855.42Z" fill-rule="evenodd"/><path d="M1770.02 920 1778.42 930.128 1781 934.85 1774.26 947.204C1759.59 968.801 1734.76 983 1706.59 983 1684.05 983 1663.65 973.912 1648.88 959.22L1642 950.918 1648.93 956.604C1661.95 965.359 1677.65 970.471 1694.55 970.471 1728.36 970.471 1757.36 950.023 1769.75 920.882Z" fill-rule="evenodd"/><path d="M2522.76 2018.13C2531.64 2018.43 2539.9 2023.93 2543.29 2032.75L2543.29 2032.75C2547.8 2044.51 2541.93 2057.7 2530.17 2062.21L2517.64 2067.02 2541.23 2128.46C2544.4 2136.71 2540.28 2145.96 2532.03 2149.13L2531.09 2149.49C2522.84 2152.66 2513.59 2148.54 2510.42 2140.29L2486.84 2078.84 2475.83 2083.07C2464.07 2087.58 2450.88 2081.71 2446.37 2069.95L2446.37 2069.95C2441.86 2058.2 2447.73 2045.01 2459.49 2040.49L2513.83 2019.63C2516.77 2018.51 2519.8 2018.03 2522.76 2018.13Z" fill-rule="evenodd"/><path d="M2314.96 539 2346.07 567.275C2394.39 615.584 2438.1 668.501 2476.48 725.309L2485 739.333 2468.38 738.495C2400.45 738.495 2337.34 759.124 2284.98 794.453L2237 834 2239.07 831.225C2288.18 758.496 2316.85 670.821 2316.85 576.444Z" fill-rule="evenodd"/><path d="M2173 927 2166.49 938.961C2149.86 978.211 2140.66 1021.36 2140.66 1066.66 2140.66 1100.63 2145.83 1133.4 2155.44 1164.22L2160.47 1177.94 2120.12 1173.87C1991.07 1173.87 1886.45 1278.45 1886.45 1407.45 1886.45 1439.7 1892.99 1470.43 1904.82 1498.37L1914.58 1516.35 1910.54 1523 1906.54 1514.69C1884.3 1462.13 1872 1404.35 1872 1343.7 1872 1207.23 1934.25 1085.29 2031.92 1004.72L2050.87 990.558 2097.78 966.549 2128.77 944.529 2140.41 938.925Z" fill-rule="evenodd"/><path d="M2670.5 1191 2673.64 1211.7C2675.49 1230.02 2676.89 1248.47 2677.83 1267.05L2678 1273.96 2655.41 1295.67C2633.58 1313.83 2609.11 1328.89 2582.67 1340.16L2556 1350 2560.88 1344.05C2574.25 1324.1 2585.78 1302.79 2595.19 1280.37L2600.75 1265.07 2600.87 1265.01C2624.58 1248.86 2645.25 1228.51 2661.82 1205.03Z" fill="#FF0000" fill-rule="evenodd"/><text fill="#FFFFFF" font-family="Arial,Arial_MSFontService,sans-serif" font-weight="400" font-size="83" transform="matrix(1 0 0 1 2517.28 1775)">·</text><path d="M2608.15 1612 2619.65 1630.9C2677 1715.68 2759.2 1782.31 2855.82 1820.36L2871.56 1825.46 2873 1839.72C2873 1876.34 2865.57 1911.24 2852.13 1942.98L2844.75 1956.56 2827.64 1988.04C2779.9 2058.6 2699.07 2105 2607.39 2105L2601.82 2104.44 2598.29 2093.07C2596.32 2083.46 2595.29 2073.51 2595.29 2063.32 2595.29 2032.75 2604.59 2004.34 2620.53 1980.78L2630.97 1968.14 2620.1 1965.35C2564.36 1948.03 2513.02 1920.73 2468.18 1885.54L2463.41 1881.31 2436 1809.99 2448.5 1806.11C2513.26 1778.75 2565.14 1726.94 2592.53 1662.26Z" fill-rule="evenodd"/><path d="M2289.02 500 2297.89 500.478 2301.69 525.357C2303.22 540.443 2304 555.75 2304 571.24 2304 819.083 2103.24 1020 1855.59 1020 1793.68 1020 1734.69 1007.44 1681.05 984.734L1681 984.711 1683.09 976.052 1684.44 976.703C1737.04 998.97 1794.88 1011.28 1855.59 1011.28 2098.43 1011.28 2295.29 814.269 2295.29 571.24 2295.29 556.051 2294.52 541.041 2293.02 526.248Z" fill-rule="evenodd"/><path d="M1651.67 842.891C1639.21 840.193 1619.14 837.212 1609.54 840.336 1599.94 843.459 1594.78 851.267 1594.06 861.631 1593.34 871.995 1599.08 892.297 1605.24 902.519 1611.4 912.741 1621 922.253 1631.04 922.963 1641.07 923.672 1656.12 914.161 1665.43 906.778 1674.75 899.396 1683.78 887.044 1686.93 878.668 1690.08 870.291 1689.94 862.483 1684.35 856.52 1678.76 850.557 1664.14 845.589 1651.67 842.891Z" fill-rule="evenodd"/><path d="M1979.08 398.5 1982.5 405.52 1962.87 408.525C1807.11 440.5 1689.94 578.758 1689.94 744.471L1690.85 762.5 1683.28 759.877 1682.5 744.471C1682.5 575.151 1802.22 433.883 1961.37 401.211Z" stroke="#000000" stroke-width="4.58333" stroke-miterlimit="8" fill-rule="evenodd"/><path d="M1682.4 759 1688.72 761.014 1692 763.281 1691.14 763.549C1648.86 781.47 1619.2 823.424 1619.2 872.322L1620.27 883 1612.31 877.491 1611.38 876.076 1611 872.322C1611 828.739 1633.03 790.313 1666.55 767.623Z" fill-rule="evenodd"/><path d="M1905.74 1497 1911.34 1512.23C1933.29 1563.81 1965.05 1610.25 2004.29 1649.26L2022 1665.26 2018.3 1669 2001.46 1653.79C1961.63 1614.2 1929.41 1567.06 1907.14 1514.72L1902 1500.77Z" fill-rule="evenodd"/><g clip-path="url(#clip1)"><g clip-path="url(#clip2)"><g clip-path="url(#clip3)"><path d="M2668.45 951.474 2756.99 939.299 2761.15 942.449 2930.93 919.105 2934.08 914.95 3022.62 902.776 3046.97 1079.86 2958.42 1092.03 2954.27 1088.88 2784.49 1112.23 2781.34 1116.38 2692.8 1128.56Z" stroke="#2E54A1" stroke-width="0.0371947" fill="#FF0000"/><path d="M2756.99 939.299 2934.08 914.95 2958.42 1092.03 2781.34 1116.38ZM2871.33 1090.1 2865.29 1058.49C2864.93 1056.57 2866.2 1054.73 2868.12 1054.37 2868.38 1054.32 2868.63 1054.3 2868.89 1054.31L2901.34 1055.53 2895.44 1044.31C2894.95 1043.4 2895.1 1042.27 2895.81 1041.51L2926.66 1008.63 2918.33 1006.05C2917.17 1005.69 2916.46 1004.51 2916.68 1003.31L2920.64 981.264 2901.23 988.257C2900.14 988.643 2898.94 988.212 2898.34 987.225L2893.22 978.645 2879.91 997.54C2879.13 998.626 2877.62 998.876 2876.53 998.097 2875.86 997.615 2875.48 996.825 2875.53 996L2877.72 956.155 2866.61 964.786C2865.56 965.613 2864.04 965.431 2863.21 964.381 2863.18 964.339 2863.15 964.296 2863.12 964.251L2847.56 941.882 2838.62 967.62C2838.19 968.886 2836.82 969.564 2835.55 969.134 2835.5 969.117 2835.45 969.098 2835.4 969.078L2822.38 963.764 2835.24 1001.54C2835.67 1002.81 2834.99 1004.18 2833.73 1004.61 2832.94 1004.87 2832.08 1004.72 2831.44 1004.21L2813.53 989.602 2810.91 999.247C2810.6 1000.36 2809.55 1001.1 2808.41 1001.02L2787.83 999.526 2797.59 1019.69C2798.12 1020.78 2797.76 1022.11 2796.74 1022.77L2789.42 1027.5 2828 1050.84C2828.89 1051.38 2829.33 1052.42 2829.11 1053.43L2826.45 1065.82 2857.38 1055.9C2859.24 1055.31 2861.23 1056.34 2861.82 1058.2 2861.89 1058.44 2861.95 1058.69 2861.97 1058.95L2864.69 1091.01Z" stroke="#2E54A1" stroke-width="0.0371947" fill="#FFFFFF"/></g></g></g><path d="M2135.61 1261.72C2131.1 1249.96 2136.97 1236.77 2148.73 1232.26L2203.07 1211.4C2214.83 1206.88 2228.02 1212.76 2232.53 1224.51L2232.53 1224.51C2237.04 1236.27 2231.17 1249.46 2219.42 1253.97L2165.07 1274.83C2153.32 1279.35 2140.13 1273.47 2135.61 1261.72Z" fill-rule="evenodd"/></g></svg>